<svg width="28" height="28" viewBox="0 0 28 28" fill="none" xmlns="http://www.w3.org/2000/svg">
<path d="M14.0002 2.33333C7.56716 2.33333 2.3335 7.567 2.3335 14C2.3335 20.433 7.56716 25.6667 14.0002 25.6667C20.4332 25.6667 25.6668 20.433 25.6668 14C25.6668 7.567 20.4332 2.33333 14.0002 2.33333ZM14.0002 23.3333C8.854 23.3333 4.66683 19.1462 4.66683 14C4.66683 8.85383 8.854 4.66667 14.0002 4.66667C19.1463 4.66667 23.3335 8.85383 23.3335 14C23.3335 19.1462 19.1463 23.3333 14.0002 23.3333Z" fill="black"/>
<path d="M15.1668 8.16666H12.8335V14.483L16.6753 18.3248L18.325 16.6752L15.1668 13.517V8.16666Z" fill="black"/>
</svg>
