<svg width="30" height="30" viewBox="0 0 30 30" fill="none" xmlns="http://www.w3.org/2000/svg">
<path d="M14.8784 7.47609C14.1367 7.47609 13.4117 7.69603 12.795 8.10808C12.1783 8.52014 11.6977 9.10581 11.4139 9.79103C11.13 10.4763 11.0558 11.2303 11.2005 11.9577C11.3452 12.6851 11.7023 13.3533 12.2268 13.8777C12.7512 14.4022 13.4194 14.7593 14.1468 14.904C14.8743 15.0487 15.6283 14.9745 16.3135 14.6906C16.9987 14.4068 17.5844 13.9262 17.9964 13.3095C18.4085 12.6928 18.6284 11.9678 18.6284 11.2261C18.6273 10.2319 18.2318 9.27871 17.5288 8.57569C16.8258 7.87268 15.8726 7.47723 14.8784 7.47609ZM14.8784 13.1011C14.5076 13.1011 14.1451 12.9911 13.8367 12.7851C13.5284 12.5791 13.2881 12.2862 13.1461 11.9436C13.0042 11.601 12.9671 11.224 13.0394 10.8603C13.1118 10.4966 13.2904 10.1625 13.5526 9.90027C13.8148 9.63804 14.1489 9.45947 14.5126 9.38712C14.8763 9.31477 15.2533 9.35191 15.596 9.49382C15.9386 9.63573 16.2314 9.87606 16.4374 10.1844C16.6435 10.4927 16.7534 10.8553 16.7534 11.2261C16.7528 11.7232 16.5551 12.1998 16.2036 12.5513C15.8521 12.9028 15.3755 13.1005 14.8784 13.1011Z" fill="black"/>
<path d="M22.0843 4.01455C20.3026 2.23332 17.9243 1.1752 15.4083 1.0444C12.8924 0.913607 10.4171 1.71941 8.46037 3.30628C6.50359 4.89316 5.20398 7.14861 4.81237 9.63734C4.42076 12.1261 4.9649 14.6716 6.33978 16.7828L13.4242 27.6585C13.5818 27.9005 13.7974 28.0994 14.0513 28.237C14.3052 28.3746 14.5895 28.4467 14.8783 28.4467C15.1672 28.4467 15.4514 28.3746 15.7053 28.237C15.9593 28.0994 16.1748 27.9005 16.3325 27.6585L23.4171 16.7828C24.6928 14.8244 25.2566 12.487 25.014 10.1624C24.7713 7.83779 23.737 5.66723 22.0843 4.01455ZM21.8461 15.7593L14.8784 26.4556L7.91056 15.7593C5.77775 12.4852 6.23519 8.10351 8.99824 5.34035C9.77042 4.56815 10.6871 3.9556 11.6961 3.53769C12.705 3.11977 13.7863 2.90467 14.8784 2.90467C15.9704 2.90467 17.0518 3.11977 18.0607 3.53769C19.0696 3.9556 19.9863 4.56815 20.7585 5.34035C23.5215 8.10351 23.9789 12.4852 21.8461 15.7593Z" fill="black"/>
</svg>
