<svg width="28" height="28" viewBox="0 0 28 28" fill="none" xmlns="http://www.w3.org/2000/svg">
<path d="M8.67335 19.5635L8.6712 19.5614C5.79559 16.7724 3.8008 13.221 2.92872 9.3367L2.92809 9.33388L2.9281 9.33388C2.8175 8.81317 2.84466 8.27314 3.00692 7.76585C3.169 7.25912 3.46035 6.80238 3.85259 6.43931L6.37259 4.04747L6.37419 4.04596L6.37419 4.04597C6.52864 3.90193 6.71194 3.79183 6.91203 3.72264C7.11211 3.65346 7.32464 3.62668 7.53578 3.644L7.54093 3.64443L7.54093 3.64448C7.75987 3.667 7.97132 3.73657 8.16041 3.84845C8.34952 3.96033 8.51176 4.11189 8.63554 4.29266L11.7869 8.88566L11.7891 8.88892L11.7891 8.88894C11.937 9.11209 12.0087 9.3766 11.993 9.64349C11.9774 9.91037 11.8752 10.1648 11.7023 10.3694L11.702 10.3698L10.2237 12.1122C10.8359 13.4009 11.6852 14.5672 12.7292 15.5517L12.733 15.5553L12.733 15.5553C13.7744 16.5796 14.9994 17.4043 16.3457 17.9878L18.1896 16.5436L18.1901 16.5432C18.3945 16.3839 18.643 16.2899 18.9022 16.2735C19.1615 16.257 19.4199 16.3186 19.6433 16.4506L19.6505 16.4549L19.6504 16.455L24.4056 19.4859C24.5995 19.6008 24.765 19.7575 24.8897 19.9444C25.0153 20.1327 25.0962 20.3468 25.1261 20.5707C25.156 20.7946 25.1342 21.0222 25.0623 21.2365C24.9903 21.4507 24.8703 21.6458 24.7114 21.8073L24.7078 21.8109L24.7078 21.8109L22.2501 24.2096C21.9474 24.5066 21.5883 24.7416 21.1935 24.901C20.7989 25.0603 20.3764 25.1411 19.9503 25.1388C19.9501 25.1388 19.9498 25.1388 19.9496 25.1388L19.951 24.8888C19.739 24.8883 19.5277 24.8653 19.3207 24.8205L8.67335 19.5635ZM8.67335 19.5635C11.61 22.3448 15.2829 24.2517 19.2693 25.0651L8.67335 19.5635ZM8.58991 11.3958C8.48875 11.503 8.41632 11.6339 8.37975 11.7767C8.34246 11.9222 8.34379 12.0748 8.38359 12.2197L8.38712 12.2325L8.39199 12.2449C9.07377 13.9793 10.1434 15.5393 11.521 16.8089C12.8531 18.1422 14.4672 19.1689 16.2477 19.8159L16.2476 19.8161L16.2592 19.8197C16.3957 19.862 16.5406 19.8706 16.6812 19.845C16.8218 19.8194 16.9542 19.7602 17.0668 19.6723L17.0674 19.6718L19.0332 18.128L23.2126 20.7908L20.9802 22.9696L20.98 22.9699C20.8059 23.1402 20.5915 23.2655 20.3557 23.3344C20.1199 23.4032 19.8704 23.4133 19.6296 23.3636L19.629 23.3635C15.9662 22.6173 12.592 20.8664 9.89455 18.3129C7.27109 15.7564 5.45482 12.5058 4.66465 8.95416L4.42062 9.00846C4.36136 8.74074 4.37378 8.46242 4.45666 8.20088C4.53955 7.93933 4.69004 7.70356 4.89334 7.51676L7.23099 5.298L7.37485 5.50613M8.58991 11.3958L4.66471 8.95442C4.61496 8.72968 4.62538 8.49605 4.69498 8.2764C4.7646 8.05673 4.89111 7.85831 5.06249 7.70084L5.06251 7.70087L5.06544 7.69808L7.37485 5.50613M8.58991 11.3958L10.1631 9.53993L7.37485 5.50613M8.58991 11.3958L7.37485 5.50613" fill="black" stroke="black" stroke-width="0.5"/>
</svg>
